# xmcd
#
# Track frame offsets: 
#        150
#        13740
#        28721
#        42693
#        60702
#        77868
#        94817
#        110972
#        125476
#        138692
#        153226
#        169916
#        188386
#        203063
#
# Disc length: 2870 seconds
#
# Revision: 0
# Processed by: cddbd v1.5.2PL0 Copyright (c) Steve Scherf et al.
# Submitted via: ExactAudioCopy v0.99pb5
#
DISCID=c60b340e
DTITLE=Stephanie Brownlee - Keep It Real
DYEAR=2010
DGENRE=Country
TTITLE0=That's What You Do
TTITLE1=Missing Till Monday
TTITLE2=That Kind Of Day
TTITLE3=Into You
TTITLE4=Young As Me
TTITLE5=Dancin' All Around It
TTITLE6=What's In It For Me ?
TTITLE7=Something To Cry About
TTITLE8=Good Friend/Girlfriend
TTITLE9=Keep It Real
TTITLE10=You're My Summertime
TTITLE11=Secret Place
TTITLE12=Keep It Real (Pop Remix)
TTITLE13=Good Friend/Girlfriend (Pop Remix)
EXTD=
EXTT0=
EXTT1=
EXTT2=
EXTT3=
EXTT4=
EXTT5=
EXTT6=
EXTT7=
EXTT8=
EXTT9=
EXTT10=
EXTT11=
EXTT12=
EXTT13=
PLAYORDER=
